<svg xmlns="http://www.w3.org/2000/svg" width="47.271" height="47.271" id="microsoft-excel">
  <path fill="#21a366" d="M29.544 2.954H13.787a1.969 1.969 0 0 0-1.969 1.969v8.371l17.726 10.34 8.863 3.74 8.863-3.74v-10.34Z"></path>
  <path fill="#107c41" d="M11.818 13.295h17.726v10.34H11.818Z"></path>
  <path fill="#33c481" d="M45.301 2.954H29.544v10.34H47.27V4.923a1.969 1.969 0 0 0-1.969-1.969Z"></path>
  <path fill="#185c37" d="M29.544 23.635H11.818v18.712a1.969 1.969 0 0 0 1.969 1.969h31.515a1.969 1.969 0 0 0 1.969-1.969v-8.372Z"></path>
  <path fill="#107c41" d="M29.544 23.635H47.27v10.34H29.544Z"></path>
  <path d="M24.618 10.34h-12.8v28.067h12.8a1.975 1.975 0 0 0 1.972-1.967V12.309a1.975 1.975 0 0 0-1.972-1.969Z" opacity=".1"></path>
  <path d="M23.144 11.818H11.818v28.067h11.326a1.975 1.975 0 0 0 1.969-1.967V13.787a1.975 1.975 0 0 0-1.969-1.969Z" opacity=".2"></path>
  <path d="M23.144 11.818H11.818V36.93h11.326a1.975 1.975 0 0 0 1.969-1.969V13.787a1.975 1.975 0 0 0-1.969-1.969Z" opacity=".2"></path>
  <path d="M21.667 11.818h-9.849V36.93h9.849a1.975 1.975 0 0 0 1.969-1.969V13.787a1.975 1.975 0 0 0-1.969-1.969Z" opacity=".2"></path>
  <path fill="#107c41" d="M1.969 11.818h19.7a1.969 1.969 0 0 1 1.969 1.969v19.7a1.969 1.969 0 0 1-1.969 1.969h-19.7A1.969 1.969 0 0 1 0 33.484V13.787a1.969 1.969 0 0 1 1.969-1.969Z"></path>
  <path fill="#fff" d="m5.219 31.021 4.78-7.407-4.378-7.365h3.523l2.39 4.708q.329.669.454 1h.031q.236-.535.495-1.04l2.554-4.668h3.234l-4.491 7.324 4.6 7.448h-3.438l-2.761-5.172a4.316 4.316 0 0 1-.329-.691h-.041a3.26 3.26 0 0 1-.319.669l-2.837 5.194Z"></path>
  <path fill="none" d="M0 0h47.271v47.271H0Z"></path>
</svg>
